<?xml version="1.0" encoding="UTF-8" ?>
<!DOCTYPE svg PUBLIC "-//W3C//DTD SVG 1.1//EN" "http://www.w3.org/Graphics/SVG/1.1/DTD/svg11.dtd">
<svg width="512pt" height="512pt" viewBox="0 0 512 512" version="1.1" xmlns="http://www.w3.org/2000/svg">
<g id="#fefefefe">
<path fill="#fefefe" opacity="1.00" d=" M 17.19 75.16 C 26.40 67.75 38.14 63.67 49.97 63.99 C 184.99 63.96 320.01 64.07 455.02 63.95 C 463.73 64.04 472.61 64.12 480.90 67.19 C 497.43 72.91 509.24 88.39 512.00 105.45 L 512.00 117.60 C 509.30 131.27 500.91 143.69 488.94 150.93 C 421.67 196.06 354.15 240.81 286.79 285.81 C 276.57 292.94 264.15 297.81 251.52 296.55 C 242.14 295.78 233.64 291.20 225.97 286.05 C 158.04 240.60 89.97 195.38 22.01 149.99 C 10.17 143.24 2.64 130.74 0.00 117.59 L 0.00 105.51 C 2.36 93.94 7.53 82.42 17.19 75.16 Z" />
<path fill="#fefefe" opacity="1.00" d=" M 0.00 171.29 C 5.32 175.67 11.30 179.15 16.98 183.03 C 81.03 225.63 145.00 268.36 209.02 311.01 C 221.44 319.17 235.43 325.97 250.56 326.40 C 267.97 327.67 285.53 322.77 299.91 312.91 C 370.70 265.88 441.55 218.91 512.00 171.39 L 512.00 406.54 C 509.23 423.59 497.50 439.13 480.92 444.83 C 472.27 447.89 463.06 447.91 454.02 448.03 C 320.67 448.00 187.32 447.94 53.97 448.06 C 42.11 448.53 29.75 446.15 20.08 438.91 C 8.95 431.74 2.31 419.27 0.00 406.46 L 0.00 171.29 Z" />
</g>
</svg>
