<?xml version="1.0" encoding="UTF-8" ?>
<!DOCTYPE svg PUBLIC "-//W3C//DTD SVG 1.1//EN" "http://www.w3.org/Graphics/SVG/1.1/DTD/svg11.dtd">
<!-- <svg width="512pt" height="512pt" viewBox="0 0 512 512" version="1.1" xmlns="http://www.w3.org/2000/svg"> -->
<svg width="512pt" height="512pt" viewBox="0 0 512 512" version="1.1" xmlns="http://www.w3.org/2000/svg" fill="none" style="background-color: transparent;">
<!-- your SVG content here -->


<g id="#1b27273b">
<path fill="#1b2727" opacity="0.23" d=" M 251.56 42.55 C 254.50 42.43 257.44 42.45 260.38 42.61 L 259.71 42.59 C 257.23 42.51 254.75 42.50 252.28 42.55 L 251.56 42.55 Z" />
</g>
<g id="#75abadfe">
<path fill="#75abad" opacity="1.00" d=" M 223.94 56.93 C 233.07 51.60 241.79 44.92 252.28 42.55 C 254.75 42.50 257.23 42.51 259.71 42.59 C 265.16 43.76 270.21 46.21 275.06 48.89 C 331.28 82.70 387.55 116.43 443.81 150.17 C 448.71 153.20 453.94 155.76 458.53 159.27 C 460.99 161.61 463.41 163.99 465.79 166.41 C 468.65 170.38 470.86 175.17 470.94 180.14 C 470.75 181.14 470.95 182.07 471.53 182.92 C 472.60 194.90 471.91 206.98 472.03 219.00 C 472.02 282.33 471.90 345.66 472.10 408.99 C 471.91 414.79 472.36 420.69 471.42 426.44 C 471.05 427.59 470.85 428.78 470.94 429.99 C 470.94 430.58 470.95 431.75 470.96 432.34 C 470.92 439.07 467.84 445.63 463.68 450.79 C 462.83 451.33 462.30 452.10 462.09 453.09 C 461.84 453.59 461.34 454.58 461.09 455.07 C 459.09 457.08 457.06 459.08 454.94 460.96 L 454.10 461.16 C 453.04 461.24 452.27 461.75 451.77 462.69 C 446.71 467.64 439.46 470.79 432.35 470.96 C 431.76 470.95 430.59 470.94 430.01 470.94 C 428.80 470.85 427.61 471.04 426.47 471.38 C 404.36 472.95 382.15 471.50 360.00 472.11 C 353.34 471.80 346.51 472.92 339.95 471.48 C 339.08 470.92 338.15 470.75 337.15 470.95 C 332.26 470.91 327.77 468.05 324.19 464.92 C 322.18 462.85 320.12 460.82 318.08 458.77 C 315.47 455.35 313.04 451.29 313.05 446.86 C 313.23 445.85 313.03 444.92 312.47 444.08 C 311.19 418.76 312.34 393.35 312.12 368.00 C 311.85 359.44 313.11 350.10 308.70 342.30 C 303.95 336.09 295.06 335.99 288.03 336.00 C 264.69 336.04 241.34 335.67 218.00 336.17 C 210.22 335.69 201.85 340.39 200.68 348.64 C 198.54 379.46 201.33 410.49 199.53 441.31 C 198.93 442.16 198.72 443.10 198.90 444.13 C 198.93 444.71 198.98 445.85 199.00 446.43 C 199.07 450.98 196.64 455.22 193.92 458.71 C 191.48 461.08 189.09 463.49 186.72 465.92 C 183.33 468.52 179.27 470.97 174.86 470.95 C 173.85 470.76 172.93 470.95 172.08 471.53 C 150.10 472.86 128.02 471.51 106.00 472.10 C 99.32 471.79 92.46 472.93 85.87 471.47 C 85.08 470.44 83.47 470.52 83.21 471.95 C 75.13 470.89 66.10 468.80 60.23 462.69 C 59.75 461.75 58.99 461.22 57.95 461.11 L 57.15 460.88 C 54.99 459.02 52.88 457.13 50.86 455.14 C 50.62 454.63 50.13 453.61 49.89 453.10 C 49.69 452.11 49.17 451.33 48.32 450.79 C 44.03 445.67 41.33 439.03 41.03 432.33 C 40.92 430.41 40.79 428.53 40.64 426.67 C 40.13 419.45 39.99 412.22 39.95 405.00 C 39.97 336.67 40.13 268.33 39.88 200.00 C 40.11 194.34 39.46 188.54 40.47 182.94 C 41.04 182.09 41.24 181.16 41.06 180.16 C 41.12 175.18 43.36 170.40 46.22 166.41 C 48.55 163.94 50.93 161.50 53.39 159.16 C 110.25 125.12 167.09 91.00 223.94 56.93 Z" />
</g>
<g id="#3851537a">
<path fill="#385153" opacity="0.48" d=" M 46.22 166.41 C 47.88 163.39 50.20 160.64 53.39 159.16 C 50.93 161.50 48.55 163.94 46.22 166.41 Z" />
</g>
<g id="#42606290">
<path fill="#426062" opacity="0.56" d=" M 458.53 159.27 C 461.59 160.89 464.08 163.41 465.79 166.41 C 463.41 163.99 460.99 161.61 458.53 159.27 Z" />
</g>
<g id="#588182c0">
<path fill="#588182" opacity="0.75" d=" M 40.47 182.94 C 39.17 181.64 39.36 180.71 41.06 180.16 C 41.24 181.16 41.04 182.09 40.47 182.94 Z" />
</g>
<g id="#567d80bc">
<path fill="#567d80" opacity="0.74" d=" M 470.94 180.14 C 472.63 180.70 472.82 181.63 471.53 182.92 C 470.95 182.07 470.75 181.14 470.94 180.14 Z" />
</g>
<g id="#46666899">
<path fill="#466668" opacity="0.60" d=" M 40.64 426.67 C 40.79 428.53 40.92 430.41 41.03 432.33 C 38.58 432.12 38.72 427.71 40.64 426.67 Z" />
</g>
<g id="#5a8386c5">
<path fill="#5a8386" opacity="0.77" d=" M 470.94 429.99 C 470.85 428.78 471.05 427.59 471.42 426.44 C 472.80 427.48 472.88 428.65 471.65 429.93 L 470.94 429.99 Z" />
</g>
<g id="#273a3a57">
<path fill="#273a3a" opacity="0.34" d=" M 470.94 429.99 L 471.65 429.93 C 472.78 431.26 472.55 432.07 470.96 432.34 C 470.95 431.75 470.94 430.58 470.94 429.99 Z" />
</g>
<g id="#649295db">
<path fill="#649295" opacity="0.86" d=" M 198.90 444.13 C 198.72 443.10 198.93 442.16 199.53 441.31 C 199.57 441.99 199.64 443.36 199.67 444.04 L 198.90 444.13 Z" />
</g>
<g id="#3752537a">
<path fill="#375253" opacity="0.48" d=" M 198.90 444.13 L 199.67 444.04 C 200.81 445.33 200.59 446.13 199.00 446.43 C 198.98 445.85 198.93 444.71 198.90 444.13 Z" />
</g>
<g id="#3953557d">
<path fill="#395355" opacity="0.49" d=" M 312.47 444.08 C 313.03 444.92 313.23 445.85 313.05 446.86 C 311.35 446.29 311.16 445.36 312.47 444.08 Z" />
</g>
<g id="#202e2f46">
<path fill="#202e2f" opacity="0.27" d=" M 48.32 450.79 C 49.17 451.33 49.69 452.11 49.89 453.10 C 48.09 453.22 47.56 452.44 48.32 450.79 Z" />
</g>
<g id="#1f2d2d44">
<path fill="#1f2d2d" opacity="0.27" d=" M 462.09 453.09 C 462.30 452.10 462.83 451.33 463.68 450.79 C 464.42 452.45 463.90 453.22 462.09 453.09 Z" />
</g>
<g id="#10171723">
<path fill="#101717" opacity="0.14" d=" M 50.86 455.14 C 52.88 457.13 54.99 459.02 57.15 460.88 C 54.99 459.02 52.89 457.11 50.86 455.14 Z" />
</g>
<g id="#10181824">
<path fill="#101818" opacity="0.14" d=" M 454.94 460.96 C 457.06 459.08 459.09 457.08 461.09 455.07 C 459.09 457.08 457.05 459.06 454.94 460.96 Z" />
</g>
<g id="#45656797">
<path fill="#456567" opacity="0.59" d=" M 186.72 465.92 C 189.09 463.49 191.48 461.08 193.92 458.71 C 192.01 461.56 189.56 464.01 186.72 465.92 Z" />
</g>
<g id="#4f7274ab">
<path fill="#4f7274" opacity="0.67" d=" M 318.08 458.77 C 320.12 460.82 322.18 462.85 324.19 464.92 C 321.93 463.10 319.84 461.08 318.08 458.77 Z" />
</g>
<g id="#5a8285c3">
<path fill="#5a8285" opacity="0.76" d=" M 57.95 461.11 C 58.99 461.22 59.75 461.75 60.23 462.69 C 58.60 463.37 57.84 462.84 57.95 461.11 Z" />
</g>
<g id="#598183c1">
<path fill="#598183" opacity="0.76" d=" M 451.77 462.69 C 452.27 461.75 453.04 461.24 454.10 461.16 C 454.15 462.90 453.37 463.41 451.77 462.69 Z" />
</g>
<g id="#5f8a8dcf">
<path fill="#5f8a8d" opacity="0.81" d=" M 83.21 471.95 C 83.47 470.52 85.08 470.44 85.87 471.47 C 85.21 471.59 83.87 471.83 83.21 471.95 Z" />
</g>
<g id="#3752537b">
<path fill="#375253" opacity="0.48" d=" M 172.08 471.53 C 172.93 470.95 173.85 470.76 174.86 470.95 C 174.29 472.64 173.36 472.83 172.08 471.53 Z" />
</g>
<g id="#3852547b">
<path fill="#385254" opacity="0.48" d=" M 337.15 470.95 C 338.15 470.75 339.08 470.92 339.95 471.48 C 338.68 472.81 337.75 472.63 337.15 470.95 Z" />
</g>
<g id="#5a8385c5">
<path fill="#5a8385" opacity="0.77" d=" M 426.47 471.38 C 427.61 471.04 428.80 470.85 430.01 470.94 L 429.94 471.65 C 428.65 472.88 427.49 472.79 426.47 471.38 Z" />
</g>
<g id="#273a3b57">
<path fill="#273a3b" opacity="0.34" d=" M 430.01 470.94 C 430.59 470.94 431.76 470.95 432.35 470.96 C 432.07 472.55 431.27 472.78 429.94 471.65 L 430.01 470.94 Z" />
</g>
</svg>
