<?xml version="1.0" encoding="UTF-8" ?>
<!DOCTYPE svg PUBLIC "-//W3C//DTD SVG 1.1//EN" "http://www.w3.org/Graphics/SVG/1.1/DTD/svg11.dtd">
<svg width="512pt" height="512pt" viewBox="0 0 512 512" version="1.1" xmlns="http://www.w3.org/2000/svg">
<g id="#76abaefe">
<path fill="#76abae" opacity="1.00" d=" M 492.49 0.00 L 499.88 0.00 C 505.12 2.55 509.99 6.56 512.00 12.18 L 512.00 20.49 C 501.88 83.11 493.22 145.96 483.67 208.68 C 473.71 275.74 463.71 342.80 453.80 409.87 C 453.20 417.04 448.70 424.87 440.99 425.96 C 435.94 427.30 430.94 425.21 426.10 423.95 C 353.86 398.49 281.04 374.69 208.83 349.13 C 257.26 290.80 305.66 232.44 354.11 174.12 C 378.21 144.54 403.34 115.77 426.86 85.72 C 334.01 165.63 240.61 244.90 147.69 324.73 C 143.31 328.95 137.41 324.49 132.63 323.55 C 101.36 312.69 70.07 301.93 38.70 291.36 C 28.83 287.93 18.74 285.00 9.23 280.63 C 4.56 278.64 1.56 274.34 0.00 269.70 L 0.00 263.13 C 5.28 251.47 18.57 247.52 28.96 241.91 C 115.61 196.55 202.37 151.41 289.01 106.02 C 356.93 70.87 424.47 34.94 492.49 0.00 Z" />
<path fill="#76abae" opacity="1.00" d=" M 187.05 375.85 C 215.85 385.50 244.50 395.57 273.26 405.32 C 254.97 430.62 236.56 455.85 217.87 480.86 C 214.60 484.63 211.70 489.80 206.04 490.07 C 196.60 492.76 185.51 484.19 187.04 474.04 C 186.87 441.31 187.01 408.58 187.05 375.85 Z" />
</g>
</svg>
