<?xml version="1.0" encoding="UTF-8" ?>
<!DOCTYPE svg PUBLIC "-//W3C//DTD SVG 1.1//EN" "http://www.w3.org/Graphics/SVG/1.1/DTD/svg11.dtd">
<svg width="512pt" height="512pt" viewBox="0 0 512 512" version="1.1" xmlns="http://www.w3.org/2000/svg">
<g id="#76abaeff">
<path fill="#76abae" opacity="1.00" d=" M 171.65 79.19 C 173.15 58.10 194.14 41.31 214.97 43.06 C 236.64 42.66 258.32 43.21 280.00 42.86 C 290.97 43.00 302.20 42.27 312.91 45.20 C 322.94 48.29 330.94 55.98 336.14 64.90 C 343.08 77.76 340.76 92.77 341.39 106.75 C 375.26 107.29 409.13 106.95 443.01 106.86 C 453.28 107.00 463.92 106.50 473.69 110.34 C 494.16 117.63 508.61 137.26 512.00 158.41 L 512.00 214.01 C 429.89 241.82 347.49 268.75 265.36 296.50 C 259.39 299.12 252.61 299.12 246.64 296.50 C 164.51 268.75 82.11 241.82 0.00 214.01 L 0.00 158.52 C 3.76 131.55 27.06 107.56 54.97 107.08 C 93.53 106.52 132.11 107.55 170.68 106.72 C 170.82 97.54 170.69 88.33 171.65 79.19 M 212.99 90.99 C 212.93 94.88 212.82 102.65 212.76 106.54 C 237.83 107.62 262.94 106.75 288.03 107.08 C 292.02 106.25 301.91 109.39 299.01 101.01 C 299.07 97.12 299.18 89.35 299.24 85.46 C 274.17 84.38 249.06 85.25 223.97 84.92 C 219.96 85.75 210.09 82.62 212.99 90.99 Z" />
<path fill="#76abae" opacity="1.00" d=" M 0.00 247.59 C 78.38 274.35 157.18 299.93 235.63 326.48 C 247.52 330.99 260.70 332.31 272.73 327.58 C 352.47 300.88 432.39 274.68 512.00 247.59 L 512.00 417.59 C 508.61 438.74 494.16 458.37 473.69 465.66 C 465.52 468.88 456.66 469.03 448.02 469.11 C 318.01 468.93 187.99 468.93 57.97 469.11 C 34.60 469.64 12.27 453.58 4.19 431.84 C 2.44 427.16 1.06 422.34 0.00 417.47 L 0.00 247.59 Z" />
</g>
</svg>
